<svg width="28" height="28" viewBox="0 0 28 28" fill="none" xmlns="http://www.w3.org/2000/svg">
<path d="M8.56008 12.0555C8.56008 12.3419 8.59104 12.5742 8.64524 12.7445C8.70717 12.9148 8.78459 13.1007 8.89298 13.3019C8.93169 13.3639 8.94717 13.4258 8.94717 13.48C8.94717 13.5574 8.90072 13.6349 8.80008 13.7123L8.31233 14.0374C8.24266 14.0839 8.17298 14.1071 8.11104 14.1071C8.03362 14.1071 7.9562 14.0684 7.87878 13.9987C7.7704 13.8826 7.67749 13.7587 7.60007 13.6349C7.52266 13.5032 7.44524 13.3561 7.36007 13.1781C6.7562 13.8903 5.99749 14.2465 5.08394 14.2465C4.43362 14.2465 3.91491 14.0607 3.53555 13.689C3.1562 13.3174 2.96265 12.8219 2.96265 12.2026C2.96265 11.5445 3.19491 11.0103 3.66716 10.6077C4.13942 10.2052 4.76652 10.0039 5.56394 10.0039C5.82717 10.0039 6.09814 10.0271 6.38459 10.0658C6.67104 10.1045 6.96523 10.1665 7.27491 10.2361V9.67097C7.27491 9.08258 7.15104 8.67226 6.91104 8.43226C6.6633 8.19226 6.24523 8.07613 5.6491 8.07613C5.37813 8.07613 5.09942 8.1071 4.81297 8.17678C4.52652 8.24645 4.24781 8.33162 3.97684 8.44C3.85297 8.4942 3.76007 8.52516 3.70587 8.54065C3.65168 8.55613 3.61297 8.56387 3.582 8.56387C3.47362 8.56387 3.41942 8.48645 3.41942 8.32387V7.94452C3.41942 7.82065 3.43491 7.72774 3.47362 7.67355C3.51232 7.61936 3.582 7.56516 3.69039 7.51097C3.96136 7.37161 4.28652 7.25548 4.66588 7.16258C5.04523 7.06194 5.44781 7.01548 5.87362 7.01548C6.79491 7.01548 7.46846 7.22452 7.90201 7.64258C8.32782 8.06065 8.54459 8.69549 8.54459 9.5471V12.0555H8.56008ZM5.41684 13.2323C5.67233 13.2323 5.93556 13.1858 6.21427 13.0929C6.49298 13 6.74072 12.8297 6.94975 12.5974C7.07362 12.4503 7.16653 12.2878 7.21298 12.1019C7.25943 11.9161 7.2904 11.6916 7.2904 11.4284V11.1032C7.06588 11.049 6.82588 11.0026 6.57814 10.9716C6.33039 10.9407 6.09039 10.9252 5.85039 10.9252C5.33168 10.9252 4.95233 11.0258 4.69684 11.2348C4.44136 11.4439 4.31749 11.7381 4.31749 12.1252C4.31749 12.489 4.41039 12.76 4.60394 12.9458C4.78975 13.1394 5.06071 13.2323 5.41684 13.2323ZM11.6336 14.0684C11.4943 14.0684 11.4014 14.0452 11.3394 13.991C11.2775 13.9445 11.2233 13.8361 11.1769 13.689L9.3575 7.70452C9.31105 7.54968 9.28782 7.44903 9.28782 7.39484C9.28782 7.27097 9.34975 7.20129 9.47363 7.20129H10.2323C10.3794 7.20129 10.4801 7.22452 10.5343 7.27871C10.5962 7.32516 10.6427 7.43355 10.6891 7.58065L11.9898 12.7058L13.1975 7.58065C13.2362 7.42581 13.2827 7.32516 13.3446 7.27871C13.4065 7.23226 13.5149 7.20129 13.6543 7.20129H14.2736C14.4207 7.20129 14.5214 7.22452 14.5833 7.27871C14.6452 7.32516 14.6994 7.43355 14.7304 7.58065L15.9536 12.7678L17.293 7.58065C17.3394 7.42581 17.3936 7.32516 17.4478 7.27871C17.5098 7.23226 17.6104 7.20129 17.7498 7.20129H18.4698C18.5936 7.20129 18.6633 7.26323 18.6633 7.39484C18.6633 7.43355 18.6556 7.47226 18.6478 7.51871C18.6401 7.56516 18.6246 7.6271 18.5936 7.71226L16.7278 13.6968C16.6814 13.8516 16.6272 13.9523 16.5653 13.9987C16.5033 14.0452 16.4027 14.0761 16.2711 14.0761H15.6052C15.4582 14.0761 15.3575 14.0529 15.2956 13.9987C15.2336 13.9445 15.1794 13.8439 15.1485 13.689L13.9485 8.69549L12.7562 13.6813C12.7175 13.8361 12.6711 13.9368 12.6091 13.991C12.5472 14.0452 12.4388 14.0684 12.2994 14.0684H11.6336ZM21.582 14.2774C21.1795 14.2774 20.7769 14.231 20.3898 14.1381C20.0027 14.0452 19.7007 13.9445 19.4995 13.8284C19.3756 13.7587 19.2904 13.6813 19.2595 13.6116C19.2285 13.5419 19.213 13.4645 19.213 13.3948V13C19.213 12.8374 19.2749 12.76 19.3911 12.76C19.4375 12.76 19.484 12.7678 19.5304 12.7832C19.5769 12.7987 19.6465 12.8297 19.724 12.8607C19.9872 12.9768 20.2736 13.0697 20.5756 13.1316C20.8853 13.1936 21.1872 13.2245 21.4969 13.2245C21.9846 13.2245 22.364 13.1394 22.6272 12.969C22.8904 12.7987 23.0298 12.551 23.0298 12.2336C23.0298 12.0168 22.9601 11.8387 22.8207 11.6916C22.6814 11.5445 22.4182 11.4129 22.0388 11.289L20.9162 10.9407C20.3511 10.7626 19.933 10.4994 19.6775 10.151C19.422 9.81033 19.2904 9.43097 19.2904 9.02839C19.2904 8.70323 19.3601 8.41678 19.4995 8.16903C19.6388 7.92129 19.8246 7.70452 20.0569 7.53419C20.2891 7.35613 20.5524 7.22452 20.862 7.13161C21.1717 7.03871 21.4969 7 21.8375 7C22.0078 7 22.1859 7.00774 22.3562 7.03097C22.5343 7.05419 22.6969 7.08516 22.8595 7.11613C23.0143 7.15484 23.1614 7.19355 23.3007 7.24C23.4401 7.28645 23.5485 7.3329 23.6259 7.37936C23.7343 7.44129 23.8117 7.50323 23.8582 7.5729C23.9046 7.63484 23.9278 7.72 23.9278 7.82839V8.19226C23.9278 8.35484 23.8659 8.44 23.7498 8.44C23.6878 8.44 23.5872 8.40903 23.4556 8.3471C23.0143 8.14581 22.5188 8.04516 21.9691 8.04516C21.5278 8.04516 21.1795 8.11484 20.9395 8.26194C20.6995 8.40903 20.5756 8.63355 20.5756 8.95097C20.5756 9.16775 20.653 9.35355 20.8078 9.50065C20.9627 9.64775 21.2491 9.79484 21.6595 9.92646L22.7588 10.2748C23.3162 10.4529 23.7188 10.7007 23.9588 11.0181C24.1988 11.3355 24.3149 11.6994 24.3149 12.1019C24.3149 12.4348 24.2453 12.7368 24.1137 13C23.9743 13.2632 23.7885 13.4955 23.5485 13.6813C23.3085 13.8749 23.022 14.0142 22.6891 14.1149C22.3407 14.2232 21.9769 14.2774 21.582 14.2774Z" fill="#252F3E"/>
<path fill-rule="evenodd" clip-rule="evenodd" d="M23.0451 18.0404C20.498 19.9216 16.7973 20.9204 13.6154 20.9204C9.15604 20.9204 5.13797 19.2713 2.10312 16.5307C1.86312 16.3139 2.0799 16.0197 2.36635 16.19C5.64894 18.0945 9.69798 19.2481 13.8864 19.2481C16.7122 19.2481 19.8167 18.6597 22.6735 17.452C23.0993 17.2584 23.4632 17.7307 23.0451 18.0404Z" fill="#FF9900"/>
<path fill-rule="evenodd" clip-rule="evenodd" d="M24.1069 16.8324C23.7817 16.4143 21.9546 16.6311 21.1262 16.7317C20.8785 16.7627 20.8398 16.5459 21.0643 16.3833C22.5198 15.3614 24.912 15.6556 25.1907 15.9962C25.4694 16.3446 25.1133 18.7369 23.7507 19.8827C23.5417 20.0608 23.3404 19.9679 23.4333 19.7356C23.743 18.9692 24.432 17.2427 24.1069 16.8324Z" fill="#FF9900"/>
</svg>