<svg width="28" height="28" viewBox="0 0 28 28" fill="none" xmlns="http://www.w3.org/2000/svg">
<path d="M3.80178 12.7347C3.76867 12.7347 3.73556 12.7015 3.76867 12.6684L4.00046 12.3373C4.03357 12.3041 4.06668 12.271 4.13291 12.271H8.30506C8.33818 12.271 8.37129 12.3041 8.33818 12.3373L8.1395 12.6353C8.10639 12.6684 8.07328 12.7015 8.00705 12.7015L3.80178 12.7347ZM2.04683 13.7944C2.01372 13.7944 1.9806 13.7612 2.01372 13.7281L2.2455 13.397C2.27861 13.3639 2.31173 13.3307 2.37795 13.3307H7.70904C7.74215 13.3307 7.77527 13.3639 7.77527 13.397L7.67593 13.7281C7.67593 13.7612 7.6097 13.7944 7.57659 13.7944H2.04683ZM4.86138 14.8872C4.82827 14.8872 4.79515 14.8541 4.82827 14.821L4.99383 14.5229C5.02694 14.4898 5.06005 14.4567 5.12628 14.4567H7.44414C7.47725 14.4567 7.51037 14.4898 7.51037 14.5229L7.47726 14.7878C7.47726 14.821 7.44414 14.8541 7.41103 14.8541L4.86138 14.8872ZM16.9805 12.5028L15.0269 12.9996C14.8613 13.0327 14.8282 13.0658 14.6957 12.8671C14.5302 12.6684 14.3977 12.536 14.1328 12.4366C13.4044 12.0723 12.6759 12.1717 12.0136 12.6022C11.219 13.0989 10.8216 13.8606 10.8216 14.821C10.8216 15.7482 11.4839 16.5099 12.411 16.6423C13.2057 16.7417 13.8679 16.4768 14.3977 15.8807C14.4971 15.7482 14.5964 15.6157 14.7289 15.4502H12.4772C12.2454 15.4502 12.1792 15.2846 12.2454 15.0859C12.411 14.7216 12.6759 14.1255 12.8415 13.8275C12.8746 13.7612 12.9739 13.6288 13.1395 13.6288H17.3779C17.3447 13.9599 17.3447 14.258 17.3116 14.5891C17.1792 15.417 16.8812 16.2118 16.3514 16.8741C15.5236 17.967 14.4309 18.6624 13.0401 18.8611C11.8812 19.0267 10.8216 18.7949 9.89446 18.0994C9.03354 17.4371 8.53685 16.5761 8.4044 15.5164C8.23884 14.258 8.63619 13.0989 9.39777 12.1055C10.2256 11.0126 11.3183 10.3172 12.6759 10.0854C13.7686 9.88669 14.8282 10.0191 15.7553 10.6484C16.3845 11.0457 16.8149 11.6087 17.113 12.3041C17.1461 12.4366 17.113 12.4697 16.9805 12.5028Z" fill="#00ACD7"/>
<path d="M20.8226 18.96C19.763 18.9268 18.8027 18.6288 17.9749 17.9334C17.2796 17.3373 16.8491 16.5756 16.7167 15.6815C16.518 14.3568 16.8822 13.1978 17.6769 12.1712C18.5379 11.0453 19.5643 10.4823 20.9551 10.2174C22.1471 10.0187 23.2729 10.118 24.2663 10.8134C25.1934 11.4426 25.7563 12.3037 25.9219 13.4296C26.1206 15.0192 25.657 16.2776 24.5974 17.3704C23.8358 18.1652 22.8756 18.6288 21.816 18.8606C21.4517 18.9268 21.1206 18.9268 20.8226 18.96ZM23.604 14.2575C23.604 14.0919 23.604 13.9926 23.5709 13.8601C23.3723 12.701 22.3127 12.0387 21.1868 12.3037C20.0941 12.5355 19.3988 13.2309 19.1339 14.3237C18.9352 15.2179 19.3657 16.1451 20.1935 16.5425C20.8226 16.8074 21.4849 16.7743 22.0809 16.4763C23.0411 16.0126 23.5378 15.251 23.604 14.2575Z" fill="#00ACD7"/>
</svg>