<svg width="28" height="28" viewBox="0 0 28 28" fill="none" xmlns="http://www.w3.org/2000/svg">
<path d="M16.9189 9.55948H17.6845L19.8655 7.3784L19.9728 6.45297C15.9146 2.87112 9.7194 3.25706 6.13755 7.3153C5.14166 8.44265 4.41919 9.78348 4.02588 11.2347C4.26881 11.1348 4.53802 11.119 4.79147 11.1885L9.15258 10.4691C9.15258 10.4691 9.37447 10.1021 9.4891 10.1253C11.4294 7.99466 14.6947 7.74647 16.9346 9.55948H16.9189Z" fill="#EA4335"/>
<path d="M22.9716 11.2349C22.47 9.38924 21.4415 7.72977 20.0102 6.46045L16.95 9.52069C18.2424 10.5765 18.9786 12.1676 18.947 13.8366V14.3803C20.4519 14.3803 21.6707 15.6002 21.6707 17.104C21.6707 18.6089 20.4509 19.8277 18.947 19.8277H13.4985L12.9548 20.3788V23.6462L13.4985 24.1899H18.947C22.0704 24.2141 24.8414 22.1897 25.7689 19.2073C26.6944 16.2238 25.5586 12.9848 22.9716 11.2349Z" fill="#4285F4"/>
<path d="M8.04243 24.1594H13.4909V19.7983H8.04243C7.65438 19.7983 7.27054 19.7152 6.91719 19.5532L6.1516 19.7898L3.9558 21.9709L3.7644 22.7365C4.99586 23.6661 6.49864 24.1657 8.04243 24.1594Z" fill="#34A853"/>
<path d="M8.04331 10.0108C5.01672 10.0287 2.33612 11.9668 1.37072 14.8346C0.405326 17.7024 1.36757 20.8678 3.76633 22.7124L6.92648 19.5522C5.55516 18.9328 4.94626 17.3196 5.56567 15.9483C6.18508 14.577 7.79828 13.9681 9.16961 14.5875C9.77324 14.8609 10.257 15.3446 10.5304 15.9483L13.6906 12.7881C12.3455 11.0309 10.2559 10.0034 8.04331 10.0108Z" fill="#FBBC05"/>
</svg>