<svg width="28" height="28" viewBox="0 0 28 28" fill="none" xmlns="http://www.w3.org/2000/svg">
<path d="M20.3906 21.5035H20.2927V21.4487H20.5564V21.5035H20.4591V21.7769H20.3906V21.5035ZM20.9166 21.5178H20.915L20.818 21.777H20.7735L20.6771 21.5178H20.676V21.777H20.6114V21.4488H20.7064L20.7958 21.6812L20.8849 21.4488H20.9796V21.777H20.9165L20.9166 21.5178Z" fill="#E76F00"/>
<path d="M11.6216 14.7919C11.6216 14.7919 10.9401 15.1882 12.1066 15.3223C13.5198 15.4835 14.2421 15.4604 15.7994 15.1656C15.7994 15.1656 16.2088 15.4224 16.7806 15.6447C13.2895 17.141 8.87956 15.5581 11.6216 14.7919ZM11.195 12.8394C11.195 12.8394 10.4307 13.4052 11.598 13.5259C13.1076 13.6816 14.2998 13.6944 16.3627 13.2972C16.3627 13.2972 16.6481 13.5864 17.0967 13.7446C12.8757 14.9789 8.17432 13.842 11.195 12.8394Z" fill="#5382A1"/>
<path d="M14.7919 9.52679C15.6521 10.5172 14.566 11.4085 14.566 11.4085C14.566 11.4085 16.7501 10.2809 15.747 8.86889C14.8101 7.55207 14.0917 6.89787 17.9811 4.64209C17.9812 4.64204 11.876 6.16685 14.7919 9.52679Z" fill="#E76F00"/>
<path d="M19.4087 16.2366C19.4087 16.2366 19.913 16.6522 18.8533 16.9736C16.8382 17.5841 10.4662 17.7684 8.69604 16.998C8.05973 16.7211 9.25299 16.3369 9.62835 16.2563C10.0198 16.1714 10.2435 16.1873 10.2435 16.1873C9.53587 15.6887 5.66959 17.1661 8.27963 17.5892C15.3976 18.7436 21.255 17.0694 19.4087 16.2366ZM11.9494 10.8168C11.9494 10.8168 8.7082 11.5867 10.8016 11.8662C11.6855 11.9846 13.4476 11.9578 15.0888 11.8203C16.4302 11.7071 17.7771 11.4666 17.7771 11.4666C17.7771 11.4666 17.3041 11.6692 16.9619 11.9028C13.6705 12.7685 7.31219 12.3657 9.14268 11.4803C10.6907 10.7319 11.9494 10.8168 11.9494 10.8168ZM17.7637 14.0669C21.1096 12.3282 19.5627 10.6573 18.4828 10.8825C18.2182 10.9376 18.1002 10.9853 18.1002 10.9853C18.1002 10.9853 18.1985 10.8314 18.386 10.7648C20.5222 10.0138 22.165 12.9798 17.6965 14.1546C17.6965 14.1546 17.7483 14.1083 17.7637 14.0669Z" fill="#5382A1"/>
<path d="M15.7465 1C15.7465 1 17.5995 2.85359 13.989 5.70402C11.0938 7.99046 13.3288 9.29416 13.9878 10.7837C12.2979 9.25888 11.0576 7.91663 11.8897 6.66735C13.1109 4.83351 16.4941 3.9444 15.7465 1Z" fill="#E76F00"/>
<path d="M12.2788 18.7782C15.4904 18.9838 20.4221 18.6641 20.5389 17.1445C20.5389 17.1445 20.3144 17.7206 17.8847 18.1781C15.1436 18.694 11.7627 18.6338 9.75745 18.3032C9.75754 18.3031 10.168 18.6429 12.2788 18.7782Z" fill="#5382A1"/>
<path d="M11.752 24.5842C11.449 24.847 11.1291 24.9945 10.8419 24.9945C10.432 24.9945 10.2106 24.7487 10.2106 24.3545C10.2106 23.9281 10.4479 23.6163 11.3997 23.6163H11.752L11.752 24.5842ZM12.588 25.5274V22.6077C12.588 21.8618 12.1626 21.3697 11.1369 21.3697C10.5382 21.3697 10.0137 21.5175 9.58735 21.7061L9.71041 22.2229C10.0461 22.0997 10.4805 21.985 10.907 21.985C11.4978 21.985 11.752 22.2229 11.752 22.7147V23.0838H11.4571C10.0216 23.0838 9.37403 23.6411 9.37403 24.4774C9.37403 25.1993 9.80077 25.6096 10.6043 25.6096C11.1207 25.6096 11.5063 25.3963 11.8667 25.0843L11.9321 25.5275L12.588 25.5274ZM15.3779 25.5274H14.3353L13.0805 21.4436H13.9911L14.7697 23.9527L14.9427 24.7073C15.3367 23.6162 15.6153 22.5093 15.7546 21.4436H16.6404C16.403 22.7883 15.976 24.2644 15.3779 25.5274ZM19.3778 24.5842C19.0743 24.847 18.7537 24.9945 18.4665 24.9945C18.0574 24.9945 17.8354 24.7487 17.8354 24.3545C17.8354 23.9281 18.0732 23.6163 19.0249 23.6163H19.3778V24.5842ZM20.2137 25.5274V22.6077C20.2137 21.8618 19.7873 21.3697 18.7627 21.3697C18.1636 21.3697 17.6389 21.5175 17.2128 21.7061L17.3357 22.2229C17.6714 22.0997 18.1067 21.985 18.5328 21.985C19.1232 21.985 19.3778 22.2229 19.3778 22.7147V23.0838H19.0824C17.6465 23.0838 16.9992 23.6411 16.9992 24.4774C16.9992 25.1993 17.4256 25.6096 18.2289 25.6096C18.7457 25.6096 19.1311 25.3963 19.4921 25.0843L19.5578 25.5275L20.2137 25.5274ZM8.45739 26.2209C8.21908 26.5689 7.83416 26.8441 7.41275 26.9999L7 26.5142C7.32075 26.3496 7.59584 26.0838 7.72365 25.8362C7.8342 25.616 7.87996 25.3322 7.87996 24.6536V19.9912H8.76815V24.5897C8.7681 25.497 8.69557 25.8635 8.45739 26.2209Z" fill="#E76F00"/>
</svg>