<svg width="28" height="28" viewBox="0 0 28 28" fill="none" xmlns="http://www.w3.org/2000/svg">
<path fill-rule="evenodd" clip-rule="evenodd" d="M2 19.6343H2.81774V16.4133L4.07869 19.2222C4.22839 19.5591 4.42831 19.6778 4.82774 19.6778C5.2273 19.6778 5.42709 19.5591 5.57678 19.2222L6.83774 16.4133V19.6343H7.64918V16.4194C7.64918 16.1074 7.52425 15.9573 7.26836 15.8762C6.65041 15.6827 6.23209 15.8513 6.0449 16.2696L4.80899 19.0349L3.61057 16.2696C3.42954 15.8513 3.00507 15.6827 2.38711 15.8762C2.12493 15.9573 2.00014 16.1073 2.00014 16.4194V19.6343H2ZM8.32953 17.0123H9.14098V18.7852C9.13482 18.8849 9.17218 19.1098 9.62169 19.1161C9.84637 19.1221 11.3757 19.1161 11.3881 19.1161V17.006H12.2059C12.212 17.006 12.2059 19.8836 12.2059 19.8962C12.212 20.6077 11.3257 20.7574 10.92 20.77H8.34828V20.2207C8.34828 20.2207 10.9138 20.227 10.92 20.2207C11.4444 20.1708 11.382 19.9088 11.382 19.8213V19.6089H9.65289C8.8476 19.5966 8.33569 19.2469 8.32953 18.8411C8.32953 18.8038 8.34828 17.0312 8.32953 17.0123ZM25.8637 14.9711C25.3645 14.9587 24.9836 15.0023 24.6527 15.1459C24.5592 15.1834 24.4156 15.1834 24.3969 15.302C24.4469 15.3517 24.4592 15.4329 24.4967 15.5018C24.5778 15.6267 24.7091 15.795 24.8276 15.8825C24.9525 15.9825 25.0836 16.0822 25.2208 16.1697C25.4706 16.3194 25.7452 16.4005 25.976 16.5506C26.1197 16.6378 26.257 16.7504 26.3944 16.8502C26.4566 16.9001 26.5067 16.9751 26.5878 17.0062V16.9939C26.5442 16.9376 26.5316 16.8565 26.4941 16.7938L26.3069 16.6066C26.126 16.3695 25.8949 16.1571 25.6513 15.9825C25.4578 15.8451 25.0209 15.6516 24.9398 15.4269C24.9335 15.4206 24.9272 15.4206 24.9272 15.4143C25.0646 15.3954 25.227 15.3458 25.3518 15.3143C25.5642 15.2583 25.7575 15.2707 25.9759 15.2146C26.0759 15.1832 26.1757 15.1583 26.2757 15.1271V15.0709C26.1634 14.9585 26.0885 14.8025 25.9637 14.7026C25.6454 14.428 25.2957 14.1595 24.9399 13.9349C24.7401 13.8038 24.4967 13.7226 24.2846 13.6166C24.2158 13.5854 24.0908 13.5666 24.0412 13.5042C23.9285 13.3668 23.8726 13.1858 23.7851 13.0235C23.602 12.6675 23.4313 12.3052 23.2734 11.9373C23.1673 11.6939 23.0922 11.4504 22.9614 11.2256C22.3121 10.1644 21.6192 9.52158 20.5394 8.89103C20.3085 8.75994 20.0339 8.70384 19.7404 8.63515C19.5844 8.62256 19.4284 8.6164 19.2723 8.60381C19.1785 8.56632 19.0788 8.44782 18.985 8.39158C18.6293 8.16689 17.7116 7.67373 17.4493 8.32288C17.2807 8.72861 17.699 9.12817 17.8487 9.33425C17.9551 9.47779 18.0859 9.64022 18.161 9.80237C18.2107 9.90842 18.217 10.0146 18.2608 10.1269C18.3668 10.4079 18.4542 10.7137 18.5853 10.9696C18.6539 11.1007 18.7287 11.2381 18.8162 11.3567C18.8661 11.4254 18.9599 11.4566 18.9722 11.5689C18.8847 11.6937 18.8787 11.8811 18.8288 12.0371C18.6102 12.7425 18.6914 13.6101 19.016 14.1344C19.116 14.2903 19.3468 14.6337 19.6715 14.5027C19.9525 14.3841 19.8899 14.0345 19.9711 13.7162C19.99 13.6475 19.9774 13.5975 20.0147 13.5476V13.56C20.0959 13.7348 20.1833 13.9034 20.2708 14.0718C20.458 14.3778 20.7951 14.7024 21.0823 14.9145C21.2257 15.0268 21.3444 15.2204 21.5379 15.2827V15.2701H21.5193C21.4818 15.2141 21.4255 15.1891 21.3819 15.1453C21.2695 15.033 21.1447 14.8956 21.051 14.7708C20.7953 14.4212 20.5643 14.0342 20.352 13.6346C20.252 13.4411 20.1646 13.2289 20.0837 13.0354C20.0522 12.9606 20.0522 12.8482 19.9837 12.8044C19.8899 12.948 19.7591 13.0666 19.6839 13.2352C19.5715 13.5037 19.5529 13.8344 19.5156 14.1716C19.4904 14.184 19.4967 14.1777 19.4841 14.1903C19.2846 14.1404 19.2157 13.9343 19.1409 13.7596C18.96 13.3163 18.9224 12.6048 19.0847 12.0929C19.1283 11.9618 19.3221 11.5498 19.2409 11.425C19.2032 11.3063 19.0847 11.2315 19.0161 11.1379C18.9287 11.0255 18.8475 10.8757 18.7853 10.7446C18.6356 10.395 18.5667 10.008 18.4043 9.65855C18.3232 9.48996 18.1985 9.32138 18.0923 9.17784C17.9737 9.00925 17.8426 8.89075 17.7491 8.69097C17.7179 8.62228 17.6743 8.50994 17.7179 8.43495C17.7365 8.385 17.7554 8.36625 17.8051 8.34751C17.8862 8.28511 18.1174 8.37255 18.2045 8.40361C18.4293 8.5035 18.6228 8.59094 18.8163 8.72203C18.9101 8.78443 19.0038 8.90293 19.1161 8.93426H19.2411C19.4408 8.97791 19.6654 8.94672 19.8526 9.00296C20.1835 9.10271 20.483 9.25884 20.7516 9.43372C21.5755 9.95179 22.2435 10.6884 22.7054 11.5685C22.7802 11.7121 22.8114 11.8431 22.874 11.993C23.0052 12.299 23.1735 12.6109 23.3046 12.9043C23.4295 13.204 23.5606 13.5037 23.7415 13.747C23.8415 13.8781 24.2159 13.9467 24.3845 14.0153C24.5031 14.0652 24.6965 14.1213 24.8091 14.1902C25.0275 14.315 25.2334 14.4711 25.4395 14.6146C25.5391 14.684 25.8511 14.84 25.8637 14.9711Z" fill="#00678C"/>
<path fill-rule="evenodd" clip-rule="evenodd" d="M19.4967 9.54688C19.4105 9.5469 19.3246 9.55743 19.241 9.57821V9.59066H19.2596C19.3095 9.69056 19.397 9.75925 19.4594 9.84655C19.503 9.94644 19.5531 10.0463 19.5967 10.1462L19.6153 10.1275C19.7028 10.0714 19.7403 9.97148 19.7403 9.81549C19.7091 9.778 19.7028 9.73435 19.6717 9.69056C19.6279 9.62802 19.5531 9.59682 19.4967 9.54688Z" fill="#00678C"/>
<path fill-rule="evenodd" clip-rule="evenodd" d="M12.8364 19.6342H15.1772C15.4518 19.6342 15.7201 19.578 15.9324 19.478C16.2818 19.316 16.4567 19.0973 16.4567 18.8102V18.211C16.4567 17.9801 16.2569 17.7555 15.8764 17.6118C15.6703 17.5306 15.4206 17.4931 15.1772 17.4931H14.191C13.8601 17.4931 13.7041 17.3931 13.6666 17.1749C13.6603 17.15 13.6603 17.1249 13.6603 17.1V16.7316C13.6603 16.7067 13.6603 16.688 13.6666 16.6631C13.7041 16.4945 13.7914 16.4446 14.0786 16.4197C14.1035 16.4197 14.1347 16.4134 14.1598 16.4134H16.4881V15.8704H14.1973C13.8664 15.8704 13.6978 15.8953 13.5418 15.939C13.055 16.0949 12.8427 16.3322 12.8427 16.7505V17.2249C12.8427 17.5933 13.2609 17.9053 13.9538 17.9801C14.035 17.9801 14.1098 17.9864 14.191 17.9864H15.0338C15.065 17.9864 15.096 17.9864 15.1209 17.9927C15.3832 18.0176 15.4893 18.0613 15.5704 18.1547C15.6141 18.2047 15.633 18.2485 15.633 18.3047V18.7791C15.633 18.8354 15.5955 18.9104 15.5143 18.9726C15.4455 19.0352 15.3269 19.0727 15.1709 19.085C15.1397 19.085 15.1149 19.0913 15.0834 19.0913H12.8364V19.6342ZM21.5379 18.6851C21.5379 19.247 21.9499 19.559 22.7927 19.6215C22.8675 19.6278 22.9487 19.6341 23.0235 19.6341H25.1459V19.0908H23.0109C22.5302 19.0908 22.3493 18.9722 22.3493 18.6851V15.8701H21.5378V18.6851H21.5379ZM16.9749 18.7163V16.7815C16.9749 16.2883 17.3181 15.9888 18.0048 15.895C18.0736 15.8824 18.1547 15.8824 18.2233 15.8824H19.7712C19.846 15.8824 19.9149 15.8824 19.996 15.895C20.6764 15.9888 21.0258 16.2883 21.0258 16.7815V18.7163C21.0258 19.116 20.8761 19.3281 20.539 19.4655L21.3443 20.1897H20.3956L19.7463 19.6091L19.0907 19.6465H18.2231C18.0735 19.6465 17.9173 19.6279 17.7424 19.578C17.2247 19.4405 16.9749 19.1658 16.9749 18.7163ZM17.8551 18.6667C17.8551 18.6979 17.8614 18.7226 17.8677 18.7541C17.9176 18.9786 18.1297 19.1036 18.448 19.1036H19.191L18.5107 18.4918H19.4593L20.0523 19.0224C20.1586 18.9662 20.2334 18.8788 20.2583 18.7664C20.2646 18.7352 20.2646 18.7104 20.2646 18.6853V16.8252C20.2646 16.8064 20.2646 16.7816 20.2583 16.7564C20.2084 16.5443 19.9963 16.4258 19.684 16.4258H18.4481C18.086 16.4258 17.8552 16.5818 17.8552 16.8252L17.8551 18.6667ZM25.5205 19.6342H25.6392V19.1847H25.8015V19.091H25.3582V19.1847H25.5205V19.6342ZM26.4319 19.6342H26.5379V19.091H26.3756L26.2322 19.4656L26.0888 19.091H25.9202V19.6342H26.0326V19.2222L26.1886 19.6342H26.2697L26.4257 19.2222H26.432V19.6342H26.4319Z" fill="#CE8B2C"/>
<path fill-rule="evenodd" clip-rule="evenodd" d="M2.49316 14.584L2.03735 12.4741H2.26833L2.53051 13.8598C2.56171 14.0034 2.58676 14.1469 2.6055 14.2904L2.68665 13.8972L3.01752 12.4739H3.28586L3.53559 13.5414C3.59798 13.8036 3.64163 14.0532 3.67283 14.2904C3.69158 14.1532 3.72278 13.9971 3.76027 13.8286L4.02861 12.4741H4.26588L3.78531 14.584H3.56678L3.19856 12.9797L3.14232 12.73C3.12986 12.8236 3.11112 12.9048 3.09237 12.9797L2.724 14.584H2.49316ZM4.40957 13.5603C4.40957 13.1982 4.49071 12.9236 4.6467 12.73C4.80284 12.5365 5.00248 12.4429 5.23976 12.4429C5.38945 12.4429 5.53313 12.4804 5.65793 12.5677C5.78272 12.655 5.88261 12.7799 5.9576 12.9422C6.0263 13.1106 6.06379 13.3041 6.06379 13.5351C6.06379 13.8472 5.9951 14.097 5.85142 14.2966C5.69542 14.5151 5.48948 14.6212 5.23976 14.6212C4.98373 14.6212 4.77779 14.5088 4.6218 14.2903C4.47812 14.0846 4.40957 13.8412 4.40957 13.5603ZM4.6467 13.5603C4.6467 13.8225 4.7028 14.0222 4.81529 14.1658C4.93393 14.3093 5.07117 14.3843 5.23346 14.3843C5.40204 14.3843 5.54559 14.3093 5.65793 14.1658C5.77027 14.0222 5.82651 13.81 5.82651 13.5291C5.82651 13.3419 5.80161 13.1858 5.73907 13.0424C5.69542 12.93 5.62673 12.8426 5.53929 12.7802C5.45303 12.715 5.34775 12.6799 5.23962 12.6803C5.06474 12.6803 4.92119 12.7488 4.81515 12.8925C4.7028 13.0359 4.6467 13.2606 4.6467 13.5603ZM6.35073 14.584V12.4741H7.11853C7.27452 12.4741 7.39316 12.4928 7.46815 12.5365C7.54929 12.574 7.61169 12.6364 7.65534 12.73C7.70528 12.8236 7.73033 12.9297 7.73033 13.0482C7.73033 13.2107 7.69283 13.3355 7.60553 13.4353C7.52425 13.5352 7.40575 13.5976 7.24346 13.6288C7.31215 13.6663 7.3558 13.7038 7.3933 13.7412C7.46199 13.8223 7.51823 13.9098 7.57433 14.0095L7.87387 14.5838H7.58678L7.3558 14.1468C7.26221 13.9782 7.19981 13.8597 7.14986 13.8034C7.10621 13.741 7.06242 13.6973 7.01877 13.6785C6.97512 13.6598 6.91888 13.6473 6.84403 13.6473H6.58185V14.5837H6.35073V14.584ZM6.58171 13.4042H7.06858C7.17463 13.4042 7.25577 13.3917 7.31201 13.3667C7.36811 13.3418 7.41176 13.298 7.44926 13.248C7.48046 13.1918 7.49291 13.1231 7.49291 13.0482C7.49291 12.9422 7.46171 12.861 7.39931 12.7986C7.33692 12.7363 7.24948 12.7051 7.12468 12.7051H6.58157L6.58171 13.4042ZM8.0861 14.584V12.4741H8.31708V13.5228L9.17232 12.4741H9.4843L8.754 13.3293L9.5155 14.584H9.20967L8.59801 13.5228L8.31708 13.8537V14.584H8.0861ZM9.62169 13.9036L9.84022 13.8849C9.85267 13.9972 9.87771 14.0908 9.92136 14.1532C9.95886 14.2219 10.0213 14.2718 10.0961 14.3092C10.1711 14.3528 10.2584 14.3716 10.3521 14.3716C10.4894 14.3716 10.5893 14.3341 10.6643 14.2718C10.7391 14.2031 10.7766 14.1157 10.7766 14.0097C10.7766 13.9473 10.7641 13.8973 10.7391 13.8474C10.7142 13.8037 10.6704 13.7662 10.6142 13.735C10.5581 13.7038 10.4394 13.6602 10.2584 13.6102C10.0961 13.5603 9.97746 13.5103 9.90877 13.4604C9.83927 13.4159 9.78318 13.3533 9.74648 13.2794C9.70899 13.2044 9.69024 13.1171 9.69024 13.0235C9.69024 12.8486 9.74648 12.7113 9.85253 12.6052C9.96487 12.4928 10.1147 12.4429 10.3019 12.4429C10.4267 12.4429 10.539 12.4678 10.6389 12.5177C10.7325 12.5677 10.8075 12.6425 10.8636 12.7362C10.9182 12.8401 10.9461 12.9559 10.9448 13.0733L10.7262 13.092C10.7199 12.9548 10.6763 12.8549 10.6076 12.7862C10.5326 12.7175 10.439 12.6863 10.3081 12.6863C10.1768 12.6863 10.0771 12.7175 10.0145 12.7737C9.98067 12.8004 9.95346 12.8346 9.93506 12.8736C9.91666 12.9126 9.90756 12.9553 9.90849 12.9984C9.90849 13.0859 9.93353 13.1483 9.98348 13.1982C10.0333 13.2419 10.1458 13.2918 10.3205 13.3418C10.4952 13.3854 10.6139 13.4292 10.6826 13.4604C10.7888 13.5165 10.8698 13.5852 10.9197 13.6726C10.976 13.7601 11.0009 13.8661 11.0009 13.9848C11.0016 14.1008 10.9714 14.215 10.9134 14.3155C10.8572 14.4154 10.7823 14.4904 10.6824 14.5402C10.5888 14.5963 10.4702 14.6213 10.3328 14.6213C10.1206 14.6213 9.94585 14.5589 9.82105 14.4278C9.69626 14.2967 9.62784 14.122 9.62169 13.9036ZM12.3557 14.584L11.9 12.4741H12.131L12.3932 13.8598C12.4244 14.0034 12.4493 14.1469 12.4682 14.2904L12.5493 13.8972L12.8801 12.4739H13.1485L13.3981 13.5414C13.4568 13.7885 13.5026 14.0386 13.5355 14.2904C13.5542 14.1532 13.5854 13.9971 13.6166 13.8286L13.8913 12.4741H14.1284L13.6478 14.584H13.4293L13.0609 12.9797L13.0048 12.73C12.9924 12.8236 12.9736 12.9048 12.9549 12.9797L12.5867 14.584H12.3557ZM14.3781 14.584V12.4741H14.6091V14.584H14.3781ZM15.4518 14.584V12.7238H14.8838V12.4741H16.2508V12.7238H15.6767V14.584H15.4518ZM16.4757 14.584V12.4741H16.7066V13.3418H17.6053V12.4741H17.8364V14.584H17.6053V13.5915H16.7066V14.584H16.4757Z" fill="#00678C"/>
</svg>