<svg width="28" height="28" viewBox="0 0 28 28" fill="none" xmlns="http://www.w3.org/2000/svg">
<path d="M14.2109 21.1188C14.1272 21.1188 14.0491 21.0965 13.9765 21.0574L13.2343 20.6165C13.1227 20.5551 13.1785 20.5328 13.212 20.5216C13.3626 20.4714 13.3906 20.4602 13.5468 20.371C13.5636 20.3598 13.5859 20.3654 13.6026 20.3765L14.1719 20.717C14.1942 20.7281 14.2221 20.7281 14.2388 20.717L16.4656 19.4278C16.488 19.4166 16.4992 19.3942 16.4992 19.3664V16.7936C16.4992 16.7656 16.488 16.7434 16.4656 16.7322L14.2388 15.4486C14.2165 15.4374 14.1886 15.4374 14.1719 15.4486L11.9451 16.7322C11.9228 16.7433 11.9116 16.7712 11.9116 16.7935V19.3663C11.9116 19.3887 11.9228 19.4166 11.9451 19.4278L12.5534 19.7793C12.8827 19.9468 13.0892 19.7514 13.0892 19.5561V17.0168C13.0892 16.9833 13.1171 16.9498 13.1562 16.9498H13.4408C13.4743 16.9498 13.5078 16.9777 13.5078 17.0168V19.5561C13.5078 19.997 13.2678 20.2537 12.8492 20.2537C12.7208 20.2537 12.6204 20.2537 12.3357 20.1142L11.7498 19.7793C11.6047 19.6957 11.5154 19.5394 11.5154 19.3719V16.7991C11.5154 16.6317 11.6047 16.4754 11.7498 16.3917L13.9765 15.1025C14.1161 15.0244 14.3059 15.0244 14.4454 15.1025L16.6721 16.3917C16.8172 16.4754 16.9066 16.6317 16.9066 16.7991V19.3719C16.9066 19.5394 16.8172 19.6957 16.6721 19.7793L14.4454 21.0685C14.3728 21.1021 14.2891 21.1188 14.2109 21.1188ZM14.8974 19.3496C13.9208 19.3496 13.7198 18.9032 13.7198 18.5237C13.7198 18.4901 13.7477 18.4567 13.7868 18.4567H14.077C14.1105 18.4567 14.1384 18.479 14.1384 18.5125C14.1831 18.8083 14.3114 18.9534 14.903 18.9534C15.3718 18.9534 15.5727 18.8473 15.5727 18.5962C15.5727 18.4511 15.5169 18.3451 14.7858 18.2725C14.1775 18.2111 13.798 18.0772 13.798 17.5917C13.798 17.1396 14.1775 16.8717 14.8137 16.8717C15.528 16.8717 15.8797 17.1173 15.9243 17.653C15.9243 17.6698 15.9187 17.6865 15.9076 17.7032C15.8964 17.7144 15.8797 17.7256 15.8629 17.7256H15.5727C15.5448 17.7256 15.5169 17.7032 15.5113 17.6753C15.4443 17.3684 15.2713 17.2679 14.8137 17.2679C14.3003 17.2679 14.2388 17.4465 14.2388 17.5804C14.2388 17.7423 14.3114 17.7925 15.0034 17.8818C15.6899 17.9711 16.0136 18.0995 16.0136 18.5794C16.008 19.0706 15.6062 19.3496 14.8974 19.3496Z" fill="#539E43"/>
<path d="M7.30188 11.0564C7.30188 10.9559 7.24606 10.861 7.15677 10.8108L4.79047 9.44904C4.75135 9.42668 4.70674 9.41553 4.66212 9.40993H4.63976C4.59514 9.40993 4.55048 9.42668 4.51141 9.44904L2.14511 10.8108C2.05577 10.861 2 10.9559 2 11.0564L2.0056 14.7174C2.0056 14.7676 2.03351 14.8179 2.07813 14.8402C2.1228 14.8681 2.17857 14.8681 2.21768 14.8402L3.62407 14.0366C3.71336 13.9863 3.76918 13.8915 3.76918 13.791V12.0777C3.76918 11.9772 3.82495 11.8823 3.91428 11.8321L4.51141 11.4861C4.55608 11.4582 4.6063 11.447 4.65652 11.447C4.70674 11.447 4.75696 11.4582 4.79607 11.4861L5.3932 11.8321C5.48253 11.8823 5.5383 11.9772 5.5383 12.0777V13.791C5.5383 13.8915 5.59413 13.9863 5.68341 14.0366L7.0898 14.8402C7.13446 14.8681 7.19024 14.8681 7.2349 14.8402C7.27957 14.8179 7.30748 14.7676 7.30748 14.7174L7.30188 11.0564ZM18.6758 6.01677C18.6312 5.99441 18.5753 5.99441 18.5362 6.01677C18.4916 6.04468 18.4637 6.0893 18.4637 6.13952V9.76716C18.4637 9.80063 18.447 9.83409 18.4135 9.85645C18.38 9.87316 18.3465 9.87316 18.313 9.85645L17.7215 9.51602C17.6781 9.49132 17.629 9.47834 17.5791 9.47834C17.5292 9.47834 17.4802 9.49132 17.4368 9.51602L15.0705 10.8833C14.9812 10.9336 14.9254 11.0284 14.9254 11.1289V13.8579C14.9254 13.9584 14.9812 14.0533 15.0705 14.1035L17.4368 15.4709C17.4802 15.4956 17.5292 15.5085 17.5791 15.5085C17.629 15.5085 17.6781 15.4956 17.7215 15.4709L20.0878 14.1035C20.1771 14.0533 20.2329 13.9584 20.2329 13.8579V7.05482C20.2329 6.94878 20.1771 6.85394 20.0878 6.80367L18.6758 6.01677ZM18.4581 12.9594C18.4581 12.9874 18.447 13.0097 18.4246 13.0208L17.6154 13.4896C17.6041 13.4951 17.5917 13.498 17.5791 13.498C17.5666 13.498 17.5542 13.4951 17.5429 13.4896L16.7336 13.0208C16.7113 13.0097 16.7001 12.9818 16.7001 12.9594V12.0218C16.7001 11.9939 16.7113 11.9716 16.7336 11.9605L17.5429 11.4916C17.5542 11.4861 17.5666 11.4832 17.5791 11.4832C17.5917 11.4832 17.6041 11.4861 17.6154 11.4916L18.4246 11.9605C18.447 11.9716 18.4581 11.9995 18.4581 12.0218V12.9594ZM26.5504 11.9995C26.6398 11.9493 26.69 11.8544 26.69 11.7539V11.0898C26.69 10.9894 26.6342 10.8945 26.5504 10.8443L24.2009 9.48255C24.1575 9.45787 24.1085 9.44489 24.0586 9.44489C24.0087 9.44489 23.9597 9.45787 23.9163 9.48255L21.55 10.8498C21.4606 10.9001 21.4049 10.9949 21.4049 11.0954V13.8245C21.4049 13.9249 21.4606 14.0198 21.55 14.07L23.8995 15.4094C23.9889 15.4597 24.0949 15.4597 24.1786 15.4094L25.6017 14.617C25.6464 14.5947 25.6743 14.5445 25.6743 14.4942C25.6743 14.444 25.6464 14.3938 25.6017 14.3714L23.2242 13.0041C23.1796 12.9762 23.1517 12.9316 23.1517 12.8814V12.0275C23.1517 11.9773 23.1796 11.927 23.2242 11.9047L23.9665 11.4805C23.9882 11.4668 24.0134 11.4596 24.0391 11.4596C24.0647 11.4596 24.0899 11.4668 24.1116 11.4805L24.8538 11.9047C24.8985 11.9326 24.9264 11.9772 24.9264 12.0275V12.6972C24.9264 12.7474 24.9543 12.7976 24.999 12.8199C25.0436 12.8478 25.0994 12.8478 25.1441 12.8199L26.5504 11.9995Z" fill="#333333"/>
<path d="M24.0225 11.8716C24.0307 11.8662 24.0404 11.8633 24.0503 11.8633C24.0603 11.8633 24.07 11.8662 24.0782 11.8716L24.5303 12.1339C24.5471 12.145 24.5582 12.1618 24.5582 12.1842V12.7088C24.5582 12.7311 24.5471 12.7478 24.5303 12.759L24.0782 13.0213C24.07 13.0267 24.0603 13.0296 24.0503 13.0296C24.0404 13.0296 24.0307 13.0267 24.0225 13.0213L23.5704 12.759C23.5536 12.7478 23.5425 12.7311 23.5425 12.7088V12.1842C23.5425 12.1618 23.5536 12.145 23.5704 12.1339L24.0225 11.8716Z" fill="#539E43"/>
<path d="M11.2591 9.49372C11.2157 9.46904 11.1667 9.45605 11.1168 9.45605C11.0669 9.45605 11.0178 9.46904 10.9745 9.49372L8.6249 10.8498C8.53557 10.9 8.48535 10.9949 8.48535 11.0953V13.8133C8.48535 13.9137 8.54117 14.0086 8.6249 14.0588L10.9745 15.415C11.0178 15.4397 11.0669 15.4527 11.1168 15.4527C11.1667 15.4527 11.2157 15.4397 11.2591 15.415L13.6087 14.0588C13.6979 14.0086 13.7482 13.9137 13.7482 13.8133V11.0954C13.7482 10.9949 13.6923 10.9001 13.6087 10.8498L11.2591 9.49372Z" fill="url(#paint0_linear_3005_1709)"/>
<mask id="mask0_3005_1709" style="mask-type:luminance" maskUnits="userSpaceOnUse" x="8" y="9" width="6" height="7">
<path d="M11.2603 9.49372C11.2169 9.46904 11.1679 9.45605 11.118 9.45605C11.0681 9.45605 11.019 9.46904 10.9757 9.49372L8.62612 10.8498C8.53679 10.9 8.48657 10.9949 8.48657 11.0953V13.8133C8.48657 13.9137 8.54239 14.0086 8.62612 14.0588L10.9757 15.415C11.019 15.4397 11.0681 15.4527 11.118 15.4527C11.1679 15.4527 11.2169 15.4397 11.2603 15.415L13.6099 14.0588C13.6992 14.0086 13.7494 13.9137 13.7494 13.8133V11.0954C13.7494 10.9949 13.6936 10.9001 13.6099 10.8498L11.2603 9.49372Z" fill="white"/>
</mask>
<g mask="url(#mask0_3005_1709)">
<path d="M13.617 10.8499L11.2563 9.49373C11.2331 9.48202 11.2088 9.47267 11.1837 9.46582L8.53833 13.9976C8.56024 14.0243 8.58671 14.047 8.61651 14.0645L10.9772 15.4207C11.0442 15.4598 11.1223 15.4709 11.1948 15.4486L13.6784 10.9057C13.6616 10.8834 13.6393 10.8666 13.617 10.8499Z" fill="url(#paint1_linear_3005_1709)"/>
</g>
<mask id="mask1_3005_1709" style="mask-type:luminance" maskUnits="userSpaceOnUse" x="8" y="9" width="6" height="7">
<path d="M11.2603 9.49372C11.2169 9.46904 11.1679 9.45605 11.118 9.45605C11.0681 9.45605 11.019 9.46904 10.9757 9.49372L8.62612 10.8498C8.53679 10.9 8.48657 10.9949 8.48657 11.0953V13.8133C8.48657 13.9137 8.54239 14.0086 8.62612 14.0588L10.9757 15.415C11.019 15.4397 11.0681 15.4527 11.118 15.4527C11.1679 15.4527 11.2169 15.4397 11.2603 15.415L13.6099 14.0588C13.6992 14.0086 13.7494 13.9137 13.7494 13.8133V11.0954C13.7494 10.9949 13.6936 10.9001 13.6099 10.8498L11.2603 9.49372Z" fill="white"/>
</mask>
<g mask="url(#mask1_3005_1709)">
<path fill-rule="evenodd" clip-rule="evenodd" d="M13.6227 14.0593C13.6896 14.0202 13.7399 13.9533 13.7622 13.8807L11.1726 9.46065C11.1056 9.44949 11.033 9.45504 10.9717 9.49411L8.62769 10.8447L11.1558 15.4545C11.1926 15.4485 11.2283 15.4372 11.2619 15.4211L13.6226 14.0594L13.6227 14.0593Z" fill="url(#paint2_linear_3005_1709)"/>
<path fill-rule="evenodd" clip-rule="evenodd" d="M13.6206 14.0587L11.2655 15.4149C11.2322 15.4318 11.1964 15.4431 11.1594 15.4483L11.2041 15.532L13.8159 14.0197V13.9862L13.749 13.8745C13.7378 13.9526 13.6876 14.0196 13.6206 14.0587Z" fill="url(#paint3_linear_3005_1709)"/>
<path fill-rule="evenodd" clip-rule="evenodd" d="M13.6206 14.0587L11.2655 15.4149C11.2322 15.4318 11.1964 15.4431 11.1594 15.4483L11.2041 15.532L13.8159 14.0197V13.9862L13.749 13.8745C13.7378 13.9526 13.6876 14.0196 13.6206 14.0587Z" fill="url(#paint4_linear_3005_1709)"/>
</g>
<defs>
<linearGradient id="paint0_linear_3005_1709" x1="367.349" y1="114.319" x2="109.816" y2="518.98" gradientUnits="userSpaceOnUse">
<stop stop-color="#41873F"/>
<stop offset="0.3288" stop-color="#418B3D"/>
<stop offset="0.6352" stop-color="#419637"/>
<stop offset="0.9319" stop-color="#3FA92D"/>
<stop offset="1" stop-color="#3FAE2A"/>
</linearGradient>
<linearGradient id="paint1_linear_3005_1709" x1="230.985" y1="340.157" x2="875.964" y2="-10.2623" gradientUnits="userSpaceOnUse">
<stop offset="0.1376" stop-color="#41873F"/>
<stop offset="0.4032" stop-color="#54A044"/>
<stop offset="0.7136" stop-color="#66B848"/>
<stop offset="0.9081" stop-color="#6CC04A"/>
</linearGradient>
<linearGradient id="paint2_linear_3005_1709" x1="-13.9078" y1="309.386" x2="529.777" y2="309.386" gradientUnits="userSpaceOnUse">
<stop offset="0.09192" stop-color="#6CC04A"/>
<stop offset="0.2864" stop-color="#66B848"/>
<stop offset="0.5968" stop-color="#54A044"/>
<stop offset="0.8624" stop-color="#41873F"/>
</linearGradient>
<linearGradient id="paint3_linear_3005_1709" x1="-264.75" y1="97.2071" x2="278.929" y2="97.2071" gradientUnits="userSpaceOnUse">
<stop offset="0.09192" stop-color="#6CC04A"/>
<stop offset="0.2864" stop-color="#66B848"/>
<stop offset="0.5968" stop-color="#54A044"/>
<stop offset="0.8624" stop-color="#41873F"/>
</linearGradient>
<linearGradient id="paint4_linear_3005_1709" x1="358.136" y1="-335.98" x2="220.402" y2="385.747" gradientUnits="userSpaceOnUse">
<stop stop-color="#41873F"/>
<stop offset="0.3288" stop-color="#418B3D"/>
<stop offset="0.6352" stop-color="#419637"/>
<stop offset="0.9319" stop-color="#3FA92D"/>
<stop offset="1" stop-color="#3FAE2A"/>
</linearGradient>
</defs>
</svg>