<svg width="28" height="28" viewBox="0 0 28 28" fill="none" xmlns="http://www.w3.org/2000/svg">
<path d="M13.9758 2C7.85124 2 8.23365 4.65597 8.23365 4.65597L8.24045 7.40764H14.085V8.23377H5.91909C5.91909 8.23377 2 7.7893 2 13.9689C2 20.1488 5.42068 19.9296 5.42068 19.9296H7.46213V17.0619C7.46213 17.0619 7.35207 13.6412 10.8282 13.6412H16.6249C16.6249 13.6412 19.8817 13.6938 19.8817 10.4936V5.20228C19.8817 5.20228 20.3763 2 13.9758 2ZM10.7531 3.85044C10.8912 3.85032 11.028 3.87743 11.1556 3.93023C11.2832 3.98302 11.3992 4.06046 11.4968 4.15812C11.5945 4.25578 11.6719 4.37174 11.7247 4.49936C11.7775 4.62698 11.8047 4.76376 11.8045 4.90188C11.8047 5.03999 11.7775 5.17677 11.7247 5.30439C11.6719 5.43201 11.5945 5.54797 11.4968 5.64563C11.3992 5.74329 11.2832 5.82073 11.1556 5.87352C11.028 5.92632 10.8912 5.95343 10.7531 5.95331C10.615 5.95343 10.4782 5.92632 10.3506 5.87352C10.223 5.82073 10.107 5.74329 10.0094 5.64563C9.91169 5.54797 9.83425 5.43201 9.78146 5.30439C9.72866 5.17677 9.70155 5.03999 9.70167 4.90188C9.70155 4.76376 9.72866 4.62698 9.78146 4.49936C9.83425 4.37174 9.91169 4.25578 10.0094 4.15812C10.107 4.06046 10.223 3.98302 10.3506 3.93023C10.4782 3.87743 10.615 3.85032 10.7531 3.85044Z" fill="url(#paint0_linear_3005_1689)"/>
<path d="M14.1498 25.9999C20.2743 25.9999 19.8919 23.3439 19.8919 23.3439L19.8851 20.5923H14.0405V19.7662H22.2063C22.2063 19.7662 26.1254 20.2107 26.1254 14.0309C26.1254 7.85113 22.7048 8.0703 22.7048 8.0703H20.6633V10.9379C20.6633 10.9379 20.7734 14.3586 17.2972 14.3586H11.5005C11.5005 14.3586 8.24372 14.306 8.24372 17.5063V22.7977C8.24372 22.7977 7.74918 25.9999 14.1497 25.9999H14.1498ZM17.3724 24.1496C17.2343 24.1498 17.0975 24.1227 16.9699 24.0699C16.8423 24.0171 16.7263 23.9396 16.6287 23.842C16.531 23.7443 16.4536 23.6283 16.4008 23.5007C16.348 23.3731 16.3209 23.2363 16.321 23.0982C16.3209 22.9601 16.348 22.8233 16.4008 22.6957C16.4535 22.568 16.531 22.4521 16.6286 22.3544C16.7263 22.2567 16.8423 22.1793 16.9699 22.1265C17.0975 22.0737 17.2343 22.0466 17.3724 22.0467C17.5105 22.0466 17.6473 22.0737 17.7749 22.1265C17.9026 22.1793 18.0185 22.2567 18.1162 22.3544C18.2138 22.452 18.2913 22.568 18.3441 22.6956C18.3969 22.8232 18.424 22.96 18.4239 23.0981C18.424 23.2362 18.3969 23.373 18.3441 23.5006C18.2913 23.6282 18.2138 23.7442 18.1162 23.8419C18.0185 23.9395 17.9026 24.017 17.7749 24.0698C17.6473 24.1226 17.5105 24.1498 17.3724 24.1496Z" fill="url(#paint1_linear_3005_1689)"/>
<defs>
<linearGradient id="paint0_linear_3005_1689" x1="233.844" y1="217.866" x2="1429.43" y2="1401.52" gradientUnits="userSpaceOnUse">
<stop stop-color="#387EB8"/>
<stop offset="1" stop-color="#366994"/>
</linearGradient>
<linearGradient id="paint1_linear_3005_1689" x1="350.446" y1="377.062" x2="1634.37" y2="1590.79" gradientUnits="userSpaceOnUse">
<stop stop-color="#FFE052"/>
<stop offset="1" stop-color="#FFC331"/>
</linearGradient>
</defs>
</svg>